<svg width="28" height="29" viewBox="0 0 28 29" fill="none" xmlns="http://www.w3.org/2000/svg">
<path d="M13.0068 11.8L9.57627 10.45L5.28814 14.5M19.8678 24.602C18.9015 25.6555 17.6308 26.513 16.1605 27.1038C14.6902 27.6946 13.0624 28.0018 11.4116 28C5.66035 28 1 24.3482 1 19.8433C1 18.662 1.2813 17.5388 1.85763 16.525M14.9793 9.1L13.686 11.5921C12.3721 14.1287 11.7152 15.3964 12.463 16.2982C13.2109 17.2 14.9193 17.2 18.3361 17.2C19.5265 17.2 20.6757 16.957 21.3378 17.8696L26.7288 25.3M17.2949 6.4C16.3851 6.4 15.5125 6.11554 14.8692 5.60919C14.2258 5.10284 13.8644 4.41608 13.8644 3.7C13.8644 2.98391 14.2258 2.29716 14.8692 1.79081C15.5125 1.28446 16.3851 1 17.2949 1C18.2047 1 19.0773 1.28446 19.7206 1.79081C20.364 2.29716 20.7254 2.98391 20.7254 3.7C20.7254 4.41608 20.364 5.10284 19.7206 5.60919C19.0773 6.11554 18.2047 6.4 17.2949 6.4Z" stroke="#E0D9F7" stroke-width="2" stroke-linecap="round" stroke-linejoin="round"/>
</svg>
